<mxfile host="Electron" agent="Mozilla/5.0 (Windows NT 10.0; Win64; x64) AppleWebKit/537.36 (KHTML, like Gecko) draw.io/26.0.4 Chrome/128.0.6613.186 Electron/32.2.5 Safari/537.36" version="26.0.4">
  <diagram name="Trang-1" id="IuriQJyLeO5O9aVxXI8S">
    <mxGraphModel dx="1434" dy="836" grid="1" gridSize="10" guides="1" tooltips="1" connect="1" arrows="1" fold="1" page="1" pageScale="1" pageWidth="827" pageHeight="1169" math="0" shadow="0">
      <root>
        <mxCell id="0" />
        <mxCell id="1" parent="0" />
        <mxCell id="IA8Y-c8JSzYyIqpKU4NF-1" value="" style="group;fillColor=#ffe6cc;strokeColor=#d79b00;" vertex="1" connectable="0" parent="1">
          <mxGeometry x="270" y="190" width="855" height="250" as="geometry" />
        </mxCell>
        <mxCell id="CLtCGDPlaYMWgl1EfGeU-10" value="" style="rounded=0;whiteSpace=wrap;html=1;fillColor=#dae8fc;strokeColor=#6c8ebf;" parent="IA8Y-c8JSzYyIqpKU4NF-1" vertex="1">
          <mxGeometry width="855" height="250" as="geometry" />
        </mxCell>
        <mxCell id="IA8Y-c8JSzYyIqpKU4NF-2" style="edgeStyle=orthogonalEdgeStyle;rounded=0;orthogonalLoop=1;jettySize=auto;html=1;exitX=1;exitY=0.5;exitDx=0;exitDy=0;entryX=0;entryY=0.5;entryDx=0;entryDy=0;" edge="1" parent="IA8Y-c8JSzYyIqpKU4NF-1" source="CLtCGDPlaYMWgl1EfGeU-1" target="CLtCGDPlaYMWgl1EfGeU-2">
          <mxGeometry relative="1" as="geometry" />
        </mxCell>
        <mxCell id="CLtCGDPlaYMWgl1EfGeU-1" value="&lt;font style=&quot;font-size: 18px;&quot;&gt;&lt;b&gt;DATA&lt;/b&gt;&lt;/font&gt;" style="ellipse;whiteSpace=wrap;html=1;fillColor=#ffe6cc;strokeColor=#d79b00;" parent="IA8Y-c8JSzYyIqpKU4NF-1" vertex="1">
          <mxGeometry x="15" y="95" width="90" height="60" as="geometry" />
        </mxCell>
        <mxCell id="IA8Y-c8JSzYyIqpKU4NF-3" style="edgeStyle=orthogonalEdgeStyle;rounded=0;orthogonalLoop=1;jettySize=auto;html=1;exitX=1;exitY=0.5;exitDx=0;exitDy=0;entryX=0;entryY=0.5;entryDx=0;entryDy=0;" edge="1" parent="IA8Y-c8JSzYyIqpKU4NF-1" source="CLtCGDPlaYMWgl1EfGeU-2" target="CLtCGDPlaYMWgl1EfGeU-6">
          <mxGeometry relative="1" as="geometry" />
        </mxCell>
        <mxCell id="IA8Y-c8JSzYyIqpKU4NF-4" style="edgeStyle=orthogonalEdgeStyle;rounded=0;orthogonalLoop=1;jettySize=auto;html=1;exitX=1;exitY=0.5;exitDx=0;exitDy=0;entryX=0;entryY=0.5;entryDx=0;entryDy=0;" edge="1" parent="IA8Y-c8JSzYyIqpKU4NF-1" source="CLtCGDPlaYMWgl1EfGeU-2" target="CLtCGDPlaYMWgl1EfGeU-7">
          <mxGeometry relative="1" as="geometry" />
        </mxCell>
        <mxCell id="CLtCGDPlaYMWgl1EfGeU-2" value="&lt;font style=&quot;font-size: 18px;&quot;&gt;&lt;b&gt;AUGMENTATION&lt;/b&gt;&lt;/font&gt;" style="rounded=1;whiteSpace=wrap;html=1;fillColor=#d5e8d4;strokeColor=#82b366;" parent="IA8Y-c8JSzYyIqpKU4NF-1" vertex="1">
          <mxGeometry x="175" y="95" width="160" height="60" as="geometry" />
        </mxCell>
        <mxCell id="IA8Y-c8JSzYyIqpKU4NF-5" style="edgeStyle=orthogonalEdgeStyle;rounded=0;orthogonalLoop=1;jettySize=auto;html=1;exitX=1;exitY=0.5;exitDx=0;exitDy=0;entryX=0;entryY=0.5;entryDx=0;entryDy=0;" edge="1" parent="IA8Y-c8JSzYyIqpKU4NF-1" source="CLtCGDPlaYMWgl1EfGeU-6" target="CLtCGDPlaYMWgl1EfGeU-8">
          <mxGeometry relative="1" as="geometry" />
        </mxCell>
        <mxCell id="CLtCGDPlaYMWgl1EfGeU-6" value="&lt;div&gt;&lt;b&gt;LABELS&lt;/b&gt;&lt;/div&gt;&lt;div&gt;&lt;b&gt;&lt;br&gt;&lt;/b&gt;&lt;/div&gt;&lt;div style=&quot;text-align: left;&quot;&gt;- IMAGES (TRAIN, TEST, VAL)&lt;/div&gt;&lt;div style=&quot;text-align: left;&quot;&gt;- COORDINATE.TXT (TRAIN, TEST, VAL)&lt;/div&gt;" style="rounded=1;whiteSpace=wrap;html=1;fillColor=#e1d5e7;strokeColor=#9673a6;" parent="IA8Y-c8JSzYyIqpKU4NF-1" vertex="1">
          <mxGeometry x="380" y="25" width="230" height="60" as="geometry" />
        </mxCell>
        <mxCell id="IA8Y-c8JSzYyIqpKU4NF-6" style="edgeStyle=orthogonalEdgeStyle;rounded=0;orthogonalLoop=1;jettySize=auto;html=1;exitX=1;exitY=0.5;exitDx=0;exitDy=0;entryX=0;entryY=0.5;entryDx=0;entryDy=0;" edge="1" parent="IA8Y-c8JSzYyIqpKU4NF-1" source="CLtCGDPlaYMWgl1EfGeU-7" target="CLtCGDPlaYMWgl1EfGeU-9">
          <mxGeometry relative="1" as="geometry" />
        </mxCell>
        <mxCell id="CLtCGDPlaYMWgl1EfGeU-7" value="&lt;b&gt;FOLDER&lt;/b&gt;&lt;div&gt;&lt;b&gt;&lt;br&gt;&lt;/b&gt;&lt;/div&gt;&lt;div&gt;IMAGES (TRAIN, VAL, TEST)&lt;/div&gt;" style="rounded=1;whiteSpace=wrap;html=1;fillColor=#e1d5e7;strokeColor=#9673a6;" parent="IA8Y-c8JSzYyIqpKU4NF-1" vertex="1">
          <mxGeometry x="380" y="165" width="230" height="60" as="geometry" />
        </mxCell>
        <mxCell id="CLtCGDPlaYMWgl1EfGeU-8" value="&lt;b&gt;DETECTION&lt;/b&gt;&lt;div&gt;&lt;b&gt;&lt;br&gt;&lt;/b&gt;&lt;/div&gt;&lt;div&gt;&lt;b&gt;USING YOLOV8, YOLOV9&lt;/b&gt;&lt;/div&gt;" style="rounded=1;whiteSpace=wrap;html=1;fillColor=#fa6800;fontColor=#000000;strokeColor=#C73500;" parent="IA8Y-c8JSzYyIqpKU4NF-1" vertex="1">
          <mxGeometry x="675" y="25" width="160" height="60" as="geometry" />
        </mxCell>
        <mxCell id="CLtCGDPlaYMWgl1EfGeU-9" value="&lt;b&gt;CLASSIFICATION&lt;/b&gt;&lt;div&gt;&lt;b&gt;&lt;br&gt;&lt;/b&gt;&lt;/div&gt;&lt;div&gt;&lt;b&gt;USING DENSENET121, INCEPTIONV3, VGG16, RESNET50&lt;/b&gt;&lt;/div&gt;" style="rounded=1;whiteSpace=wrap;html=1;fillColor=#6d8764;fontColor=#ffffff;strokeColor=#3A5431;" parent="IA8Y-c8JSzYyIqpKU4NF-1" vertex="1">
          <mxGeometry x="675" y="150" width="160" height="90" as="geometry" />
        </mxCell>
      </root>
    </mxGraphModel>
  </diagram>
</mxfile>
